<svg xmlns="http://www.w3.org/2000/svg" width="24" height="24" viewBox="0 0 24 24" fill="none" stroke="currentColor" stroke-width="2" stroke-linecap="round" stroke-linejoin="round">
  <path d="M19.14,12.94c0.04-0.3,0.06-0.61,0.06-0.94c0-0.32-0.02-0.64-0.07-0.94l2.03-1.58c0.18-0.14,0.23-0.41,0.12-0.61 l-1.92-3.32c-0.12-0.22-0.37-0.29-0.59-0.22l-2.39,0.96c-0.5-0.38-1.03-0.7-1.62-0.94L14.4,2.81c-0.04-0.24-0.24-0.41-0.48-0.41 h-3.84c-0.24,0-0.44,0.17-0.48,0.41L9.2,5.2c-0.59,0.24-1.12,0.56-1.62,0.94L5.19,5.18c-0.22-0.08-0.47,0-0.59,0.22L2.68,8.72 c-0.11,0.2-0.06,0.47,0.12,0.61l2.03,1.58C4.74,11.36,4.72,11.68,4.72,12s0.02,0.64,0.07,0.94l-2.03,1.58 c-0.18,0.14-0.23,0.41-0.12,0.61l1.92,3.32c0.12,0.22,0.37,0.29,0.59,0.22l2.39-0.96c0.5,0.38,1.03,0.7,1.62,0.94l0.39,2.39 c0.04,0.24,0.24,0.41,0.48,0.41h3.84c0.24,0,0.44-0.17,0.48-0.41l0.39-2.39c0.59-0.24,1.12-0.56,1.62-0.94l2.39,0.96 c0.22,0.08,0.47,0,0.59-0.22l1.92-3.32c0.12-0.22,0.07-0.47-0.12-0.61L19.14,12.94z"></path>
  <circle cx="12" cy="12" r="3"/>
</svg> 